<svg id="Layer_1" height="512" viewBox="0 0 512 512" width="512" xmlns="http://www.w3.org/2000/svg" data-name="Layer 1"><g fill-rule="evenodd"><path d="m256 0c141.381 0 256 114.614 256 256s-114.619 256-256 256-256-114.611-256-256 114.616-256 256-256z" fill="#f44336"/><path d="m396.319 327.388-47.31-27.313a19.353 19.353 0 0 0 -26.367 7.072l-1.869 3.231a31.952 31.952 0 0 1 -46.843 9.574 410.513 410.513 0 0 1 -43.765-38.1 411.041 411.041 0 0 1 -38.1-43.766 31.954 31.954 0 0 1 9.578-46.851l3.231-1.866a19.35 19.35 0 0 0 7.067-26.369l-27.32-47.31a19.142 19.142 0 0 0 -23.736-8.326l-.581.229c-8.987 3.559-35.328 13.292-41.862 19.828a37.8 37.8 0 0 0 -3.046 3.439c-16.34 20.88-8.145 54.809.484 77.074 15.887 40.993 46.012 80.426 76.892 111.305s70.309 61.007 111.3 76.892c14.21 5.507 30.214 9.867 45.554 9.867 12.845 0 25.653-3.119 34.966-12.429 6.618-6.616 16.255-32.761 19.808-41.826l.23-.587a19.16 19.16 0 0 0 -8.311-23.768z" fill="#fff"/></g></svg>