<svg id="Layer_1" height="512" viewBox="0 0 512 512" width="512" xmlns="http://www.w3.org/2000/svg" data-name="Layer 1"><g fill-rule="evenodd"><path d="m256 0c141.386 0 256 114.621 256 256s-114.614 256-256 256-256-114.62-256-256 114.617-256 256-256z" fill="#2196f3"/><path d="m339.688 242.236v-104.8h-167.506v107.311l56.718 42.765h54.14zm-131.142 56.773-102.374 93.282-.1-170.566 102.478 77.284zm20.913 9.931-106.51 97.051h266.208l-106.51-97.051zm73.832-10.179 102.643-82.032v175.555zm91.772-100.775-33.946-23.551v50.678zm-151.307-87.9c7.817-5.43 16.786-5.424 24.608 0l8.544 5.926h-41.694zm-93 118.5v-53.97l-37.273 25.862 37.273 28.1zm59.981-61.854h90.4a10.714 10.714 0 1 1 0 21.428h-90.4a10.714 10.714 0 0 1 0-21.428zm-10.718 59.728a10.714 10.714 0 0 1 10.714-10.714h90.4a10.714 10.714 0 0 1 0 21.428h-90.4a10.718 10.718 0 0 1 -10.714-10.714z" fill="#fff"/></g></svg>